<svg className="svg-bg" version="1.1" id="Layer_1" xmlns="http://www.w3.org/2000/svg" xmlns:xlink="http://www.w3.org/1999/xlink" x="0px" y="0px" viewBox="0 0 241.5 300" style="enable-background:new 0 0 241.5 300;stroke: #0a3765;fill: #026bb6;" xml:space="preserve">
    <path d="M241.4,43.8C168.9,31.7,167.1,31,120.3,0C85.5,28.4,44.2,39.9,0.1,43.4c0,30-0.2,59.2,0.1,88.5c0.3,29.7,7.6,57.8,21.5,84.1c21,39.7,52.2,67.9,94.5,83.4c2.7,1,6.2,0.8,9.1,0c4.6-1.3,9.1-3.1,13.4-5.2c56.3-27.9,89.2-73.6,99.7-134.9c3.5-20.3,2.6-41.5,3.1-62.3C241.8,79.3,241.4,61.7,241.4,43.8z"></path>
</svg>